HIERARCHY
ROOT Hips
{
	OFFSET -0.001795 -0.223333 0.028219
	CHANNELS 6 Xposition Yposition Zposition Zrotation Yrotation Xrotation 
	JOINT LeftUpLeg
	{
		OFFSET 0.069520 -0.091406 -0.006815
		CHANNELS 3 Zrotation Yrotation Xrotation
		JOINT LeftLeg
		{
			OFFSET 0.034277 -0.375199 -0.004496
			CHANNELS 3 Zrotation Yrotation Xrotation
			JOINT LeftFoot
			{
				OFFSET -0.013596 -0.397961 -0.043693
				CHANNELS 3 Zrotation Yrotation Xrotation
				JOINT LeftToe
				{
					OFFSET 0.026358 -0.055791 0.119288
					CHANNELS 3 Zrotation Yrotation Xrotation
					End Site
					{
						OFFSET 0.000000 0.000000 0.000000
					}
				}
			}
		}
	}
	JOINT RightUpLeg
	{
		OFFSET -0.067670 -0.090522 -0.004320
		CHANNELS 3 Zrotation Yrotation Xrotation
		JOINT RightLeg
		{
			OFFSET -0.038290 -0.382569 -0.008850
			CHANNELS 3 Zrotation Yrotation Xrotation
			JOINT RightFoot
			{
				OFFSET 0.015774 -0.398415 -0.042312
				CHANNELS 3 Zrotation Yrotation Xrotation
				JOINT RightToe
				{
					OFFSET -0.025372 -0.048144 0.123348
					CHANNELS 3 Zrotation Yrotation Xrotation
					End Site
					{
						OFFSET 0.000000 0.000000 0.000000
					}
				}
			}
		}
	}
	JOINT Spine
	{
		OFFSET -0.002533 0.108963 -0.026696
		CHANNELS 3 Zrotation Yrotation Xrotation
		JOINT Spine1
		{
			OFFSET 0.005487 0.135180 0.001092
			CHANNELS 3 Zrotation Yrotation Xrotation
			JOINT Spine2
			{
				OFFSET 0.001457 0.052922 0.025425
				CHANNELS 3 Zrotation Yrotation Xrotation
				JOINT Neck
				{
					OFFSET -0.002778 0.213870 -0.042857
					CHANNELS 3 Zrotation Yrotation Xrotation
					JOINT Head
					{
						OFFSET 0.005152 0.064970 0.051349
						CHANNELS 3 Zrotation Yrotation Xrotation
						End Site
						{
							OFFSET 0.000000 0.000000 0.000000
						}
					}
				}
				JOINT LeftShoulder
				{
					OFFSET 0.078845 0.121749 -0.034090
					CHANNELS 3 Zrotation Yrotation Xrotation
					JOINT LeftArm
					{
						OFFSET 0.090977 0.030469 -0.008868
						CHANNELS 3 Zrotation Yrotation Xrotation
						JOINT LeftForeArm
						{
							OFFSET 0.259612 -0.012772 -0.027456
							CHANNELS 3 Zrotation Yrotation Xrotation
							JOINT LeftHand
							{
								OFFSET 0.249234 0.008986 -0.001171
								CHANNELS 3 Zrotation Yrotation Xrotation
								End Site
								{
									OFFSET 0.000000 0.000000 0.000000
								}
							}
						}
					}
				}
				JOINT RightShoulder
				{
					OFFSET -0.081759 0.118833 -0.038615
					CHANNELS 3 Zrotation Yrotation Xrotation
					JOINT RightArm
					{
						OFFSET -0.096012 0.032551 -0.009143
						CHANNELS 3 Zrotation Yrotation Xrotation
						JOINT RightForeArm
						{
							OFFSET -0.253742 -0.013329 -0.021401
							CHANNELS 3 Zrotation Yrotation Xrotation
							JOINT RightHand
							{
								OFFSET -0.255298 0.007772 -0.005559
								CHANNELS 3 Zrotation Yrotation Xrotation
								End Site
								{
									OFFSET 0.000000 0.000000 0.000000
								}
							}
						}
					}
				}
			}
		}
	}
}
MOTION
Frames: 18
Frame Time: 0.050000
0.000000 0.944489 0.000000 -2.801656 -15.994435 9.801083 4.781048 -0.404818 -9.067129 -1.739138 0.250983 5.565677 3.269790 7.750968 7.810942 0.000000 0.000000 0.000000 -2.510844 1.018738 -10.300193 3.063869 -0.196268 -0.572584 3.526391 -2.292610 15.311133 0.000000 0.000000 0.000000 -4.490691 0.410164 11.207702 -7.900658 4.242283 3.897807 -6.436234 -2.947338 4.593551 -5.076610 3.331364 -14.109335 0.000000 0.000000 0.000000 -28.903572 -27.811952 19.857097 -29.242993 -31.908605 2.659287 -7.529785 -42.376436 5.025064 0.000000 0.000000 0.000000 -4.777279 25.638067 8.272124 16.409750 3.876587 -0.904140 0.528499 50.417827 0.299631 0.000000 0.000000 0.000000 
0.000067 0.943162 -0.000242 -2.123661 -16.167004 9.754278 5.400395 -0.341336 -8.631693 -4.093794 0.682565 4.506986 3.143741 7.526205 7.848563 0.000000 0.000000 0.000000 -2.221684 1.014088 -10.239716 1.241767 -0.103791 -0.952789 3.408988 -2.109207 14.456269 0.000000 0.000000 0.000000 -6.146021 0.713221 11.706874 -6.572883 3.349826 2.157538 -7.454221 -1.988841 5.988344 -6.223462 4.072683 -15.581075 0.000000 0.000000 0.000000 -28.983052 -26.232969 18.526216 -30.378524 -32.245266 2.848334 -11.168053 -48.971669 7.836384 0.000000 0.000000 0.000000 -5.224488 24.770554 8.002170 13.761229 4.530137 -0.803755 6.384852 49.737005 3.043037 0.000000 0.000000 0.000000 
-0.000035 0.943715 -0.000394 -2.749442 -14.371062 10.140133 5.938055 -0.354008 -9.675996 -3.366574 0.536733 5.422985 2.463579 6.374130 7.504156 0.000000 0.000000 0.000000 -1.573768 1.014045 -10.218981 1.949498 -0.151753 -0.961708 2.018426 -4.379420 14.560325 0.000000 0.000000 0.000000 -4.846355 0.474140 11.951809 -6.179804 3.138588 2.285575 -8.463680 -2.509017 5.142417 -5.612021 3.880568 -11.776763 0.000000 0.000000 0.000000 -29.370387 -27.797607 19.549322 -29.113183 -30.007109 2.188466 -10.877830 -51.642467 8.136571 0.000000 0.000000 0.000000 -5.860778 25.693823 8.253140 15.414727 3.730275 -0.917883 10.171910 48.673614 4.731292 0.000000 0.000000 0.000000 
-0.000509 0.942384 -0.000635 -2.608497 -13.367039 9.938382 6.389152 -0.328432 -9.260526 -4.093293 0.641566 4.718703 1.988357 5.516142 7.062236 0.000000 0.000000 0.000000 -2.184277 0.980548 -9.979660 3.119105 -0.228064 -1.154371 1.210096 -5.718923 14.762921 0.000000 0.000000 0.000000 -4.829815 0.435082 11.356858 -5.908139 3.008076 2.492590 -9.412515 -2.469870 6.522588 -5.473584 3.824954 -12.589416 0.000000 0.000000 0.000000 -28.729717 -28.222280 19.393754 -30.540372 -31.211048 2.732376 -9.870097 -51.547698 7.612468 0.000000 0.000000 0.000000 -6.584120 25.153228 7.995905 15.149406 4.257725 -0.939335 12.879620 47.316454 5.798217 0.000000 0.000000 0.000000 
-0.001127 0.941924 -0.000825 -3.030742 -12.878726 9.899986 6.470192 -0.326492 -9.212596 -3.256293 0.483610 4.789816 1.895258 5.293286 6.597714 0.000000 0.000000 0.000000 -1.880782 0.956065 -9.713045 3.518284 -0.257141 -1.534946 1.072754 -6.150896 15.388858 0.000000 0.000000 0.000000 -4.404628 0.365032 11.708165 -6.517726 3.323565 2.630905 -8.636416 -2.770586 6.532918 -5.867219 4.060738 -12.680931 0.000000 0.000000 0.000000 -27.438572 -28.039846 18.927507 -31.903327 -30.953169 2.927597 -7.608314 -53.924493 6.958810 0.000000 0.000000 0.000000 -6.520650 24.838428 7.904447 16.564726 4.399966 -0.994756 14.035037 49.500204 6.545846 0.000000 0.000000 0.000000 
-0.002106 0.941799 -0.001044 -2.814483 -12.145878 10.071043 6.436965 -0.354356 -9.364113 -3.287967 0.472432 4.394021 1.556681 4.723012 6.646753 0.000000 0.000000 0.000000 -2.709676 0.897833 -9.150481 4.920622 -0.332109 -2.537357 0.621642 -6.627897 15.024802 0.000000 0.000000 0.000000 -4.798157 0.423950 11.723281 -6.264556 3.151190 2.303836 -8.177109 -2.252492 7.058965 -6.656230 4.616371 -13.183957 0.000000 0.000000 0.000000 -27.824718 -28.385211 19.004145 -31.067287 -30.349931 2.666591 -9.791369 -55.470044 8.278930 0.000000 0.000000 0.000000 -6.863237 25.874586 8.169409 17.445325 3.033048 -1.196540 17.511241 51.382016 8.563869 0.000000 0.000000 0.000000 
-0.003153 0.941527 -0.001357 -2.838109 -11.587459 9.918120 6.547357 -0.354423 -9.395322 -3.167505 0.446737 4.577760 1.333528 4.311163 6.473982 0.000000 0.000000 0.000000 -2.356790 0.897023 -9.159329 4.545577 -0.324428 -2.008136 0.341027 -6.853627 14.513582 0.000000 0.000000 0.000000 -4.992858 0.454387 12.083388 -6.400881 3.254317 2.800878 -8.067805 -2.317678 6.679984 -6.976348 4.832841 -13.304386 0.000000 0.000000 0.000000 -27.289613 -28.146072 18.553378 -31.287157 -29.306002 2.496773 -14.249163 -56.714019 10.952203 0.000000 0.000000 0.000000 -7.120209 25.952653 8.166532 18.574438 3.669322 -1.206270 19.254270 50.989597 9.359017 0.000000 0.000000 0.000000 
-0.004132 0.941689 -0.001831 -3.017428 -11.056316 9.954553 6.506689 -0.374396 -9.725950 -2.499894 0.326392 4.971283 1.165756 4.007656 6.363109 0.000000 0.000000 0.000000 -1.998985 0.899621 -9.178708 4.596701 -0.333465 -1.859906 -0.091324 -7.510277 14.421302 0.000000 0.000000 0.000000 -4.903911 0.449827 12.766487 -6.461170 3.260730 2.628963 -7.675926 -2.000966 6.884256 -7.868402 5.438912 -13.465114 0.000000 0.000000 0.000000 -27.524404 -28.220315 18.488560 -30.415286 -28.746413 2.249083 -19.085595 -57.637334 13.846960 0.000000 0.000000 0.000000 -7.569605 26.166062 8.173531 19.408276 3.776695 -1.269228 20.798488 51.338216 10.248238 0.000000 0.000000 0.000000 
-0.005095 0.941588 -0.002301 -3.057441 -10.732946 9.960362 6.614740 -0.375263 -9.911274 -2.408252 0.307649 5.167629 1.042198 3.784221 6.303748 0.000000 0.000000 0.000000 -1.824906 0.901068 -9.187965 4.671929 -0.341703 -1.788126 -0.459114 -8.060467 14.267303 0.000000 0.000000 0.000000 -5.034945 0.476787 13.127475 -6.649680 3.386741 3.064784 -7.535915 -1.933431 6.510532 -7.955192 5.494058 -13.715641 0.000000 0.000000 0.000000 -27.363657 -28.298487 18.372435 -29.441602 -28.424603 2.080368 -22.655064 -57.925982 15.937382 0.000000 0.000000 0.000000 -7.779702 26.173093 8.155206 20.526554 4.160720 -1.292226 21.019398 51.661530 10.494712 0.000000 0.000000 0.000000 
-0.006049 0.941922 -0.002746 -3.080407 -10.313107 9.537173 6.751698 -0.365567 -9.955809 -2.384782 0.302653 5.895665 0.838172 3.436861 6.309821 0.000000 0.000000 0.000000 -1.681932 0.853056 -8.698808 4.831165 -0.356673 -1.693434 -0.855132 -8.624888 14.068460 0.000000 0.000000 0.000000 -5.350573 0.541154 13.947184 -6.685055 3.391197 2.964723 -7.332446 -1.606656 6.738896 -7.654068 5.345824 -13.854002 0.000000 0.000000 0.000000 -26.982346 -28.106103 17.910724 -28.715192 -28.327314 1.987006 -26.130094 -57.959633 17.914099 0.000000 0.000000 0.000000 -7.427771 26.361680 8.235898 21.689311 3.988933 -1.402648 22.152104 51.703551 11.157505 0.000000 0.000000 0.000000 
-0.006954 0.941758 -0.003052 -2.988792 -9.507361 9.290870 6.679108 -0.385542 -10.016030 -2.125696 0.246284 6.159045 0.498306 2.823545 6.179893 0.000000 0.000000 0.000000 -1.776555 0.801780 -8.179306 4.762760 -0.362581 -1.999003 -0.695449 -8.218547 14.043955 0.000000 0.000000 0.000000 -5.456232 0.542519 14.102442 -6.704536 3.407505 3.196771 -7.266563 -1.264334 6.686803 -7.545495 5.354158 -13.534392 0.000000 0.000000 0.000000 -26.822176 -28.343983 17.718388 -27.688339 -27.836215 1.802890 -29.107591 -58.147696 19.637137 0.000000 0.000000 0.000000 -6.567039 26.741333 8.453666 22.749932 3.235112 -1.582737 24.374940 52.318135 12.572393 0.000000 0.000000 0.000000 
-0.007730 0.941648 -0.003178 -2.914049 -8.903935 9.349010 6.375393 -0.429010 -10.336298 -1.498633 0.124666 6.387657 0.281924 2.431591 6.090302 0.000000 0.000000 0.000000 -1.767102 0.803235 -8.200437 4.545849 -0.357379 -1.991712 -0.603630 -7.980515 14.054070 0.000000 0.000000 0.000000 -5.426405 0.526853 14.186252 -6.846658 3.468629 3.192580 -6.982393 -1.071298 7.051840 -7.077532 5.093959 -13.603357 0.000000 0.000000 0.000000 -26.587294 -28.654948 17.717486 -26.462231 -27.832527 1.646278 -31.777916 -58.717148 21.419506 0.000000 0.000000 0.000000 -6.415242 26.665705 8.450253 24.564061 2.308873 -1.871471 26.991269 53.812383 14.412307 0.000000 0.000000 0.000000 
-0.008324 0.941416 -0.003151 -2.818569 -8.184281 9.149259 6.089663 -0.461433 -10.321226 -0.947301 0.016351 6.493536 0.000676 1.905394 5.931088 0.000000 0.000000 0.000000 -1.856810 0.769771 -7.857551 4.369493 -0.355474 -2.311063 -0.414012 -7.712509 14.558311 0.000000 0.000000 0.000000 -5.567299 0.539391 14.473439 -6.698391 3.384536 3.222550 -6.885213 -0.775948 7.239196 -6.815341 4.972223 -13.999659 0.000000 0.000000 0.000000 -26.425300 -28.920377 17.608857 -25.317353 -27.688919 1.501074 -35.042934 -59.245445 23.571120 0.000000 0.000000 0.000000 -5.647806 26.343482 8.463531 25.948602 1.118253 -2.195054 31.224060 55.066578 17.206355 0.000000 0.000000 0.000000 
-0.008698 0.941125 -0.003048 -2.892906 -7.892055 9.038925 5.887221 -0.481803 -10.382529 -0.347549 -0.098546 6.770781 -0.064212 1.737676 5.715420 0.000000 0.000000 0.000000 -1.742441 0.770581 -7.870496 4.135781 -0.344648 -2.094590 -0.160066 -7.287865 14.738462 0.000000 0.000000 0.000000 -5.374338 0.493999 14.461064 -6.781927 3.425877 3.255034 -6.570473 -0.697031 7.481437 -6.590748 4.851303 -13.916158 0.000000 0.000000 0.000000 -26.674056 -28.924948 17.634500 -24.333829 -27.443148 1.314785 -38.075409 -59.413522 25.508398 0.000000 0.000000 0.000000 -5.126659 25.689788 8.328847 27.188659 0.491288 -2.432159 34.729492 56.113269 19.569317 0.000000 0.000000 0.000000 
-0.008856 0.941030 -0.003072 -2.842423 -7.688028 9.165447 5.568093 -0.517501 -10.555089 0.183013 -0.195847 6.751365 -0.117618 1.636131 5.675181 0.000000 0.000000 0.000000 -1.964255 0.767189 -7.838799 4.068191 -0.342876 -2.285055 0.448730 -6.166269 14.715520 0.000000 0.000000 0.000000 -5.390044 0.494796 14.453871 -6.690822 3.360967 3.076325 -6.470072 -0.638165 7.673168 -6.789831 4.992337 -13.797949 0.000000 0.000000 0.000000 -26.492859 -29.006582 17.602685 -23.633860 -27.118140 1.167668 -41.335025 -60.333166 28.057909 0.000000 0.000000 0.000000 -4.563377 25.145811 8.243495 27.803333 -0.052103 -2.598219 39.323605 57.588244 22.881518 0.000000 0.000000 0.000000 
-0.008939 0.940743 -0.003566 -2.891111 -7.576530 9.404349 5.600646 -0.528312 -10.827848 0.271492 -0.211266 6.697639 -0.132520 1.587821 5.594938 0.000000 0.000000 0.000000 -1.863747 0.790777 -8.086131 3.929541 -0.334690 -2.175668 0.519046 -5.885228 14.329303 0.000000 0.000000 0.000000 -5.468112 0.510007 14.410648 -6.600856 3.316713 3.162857 -6.118070 -0.996674 7.779046 -6.350508 4.670956 -14.173046 0.000000 0.000000 0.000000 -26.508223 -28.902780 17.699104 -22.199974 -27.193050 0.957552 -44.392311 -60.896350 30.411159 0.000000 0.000000 0.000000 -4.548595 24.821623 8.137726 27.659940 0.058025 -2.559357 40.848988 59.065919 24.402808 0.000000 0.000000 0.000000 
-0.009040 0.940688 -0.004482 -3.034084 -7.558886 9.777753 5.420414 -0.554674 -11.048747 0.903396 -0.312895 6.307638 -0.090533 1.661702 5.584968 0.000000 0.000000 0.000000 -2.045006 0.831756 -8.534077 4.266030 -0.354723 -2.243975 0.974188 -5.213835 14.730722 0.000000 0.000000 0.000000 -5.264357 0.486354 14.659698 -6.517047 3.254496 2.944446 -5.995080 -1.091443 7.978338 -6.170617 4.539838 -14.409918 0.000000 0.000000 0.000000 -25.802142 -29.389386 17.892699 -21.750761 -27.500061 0.936060 -46.024570 -61.049943 31.621230 0.000000 0.000000 0.000000 -4.531348 24.339692 7.994699 27.230297 0.450419 -2.451350 41.732335 61.129265 25.964926 0.000000 0.000000 0.000000 
-0.009313 0.940332 -0.005357 -3.245714 -7.682711 10.199706 5.596536 -0.558524 -11.564639 1.031442 -0.337103 6.424172 0.025328 1.838405 5.478495 0.000000 0.000000 0.000000 -2.102939 0.874232 -8.984209 4.708680 -0.378740 -2.240049 1.167050 -4.843817 14.632927 0.000000 0.000000 0.000000 -4.931525 0.434824 14.621760 -6.616349 3.318062 3.162930 -5.870979 -1.384559 7.909429 -6.295184 4.586329 -14.147000 0.000000 0.000000 0.000000 -25.363718 -29.622512 18.070464 -21.124088 -27.767139 0.878836 -47.021425 -61.462436 32.590988 0.000000 0.000000 0.000000 -4.720363 24.763556 8.108604 26.710616 1.311035 -2.238408 37.971183 63.118766 24.458242 0.000000 0.000000 0.000000 
